<svg width="863" height="250" viewBox="0 0 863 250" fill="none" xmlns="http://www.w3.org/2000/svg">
<g filter="url(#filter0_d_461:125)">
<path d="M105.98 0.0290833L69.8862 0.0290833V0.0332489C66.9927 0.0471344 64.2169 1.73769 62.1493 4.74533C60.0817 7.75298 58.8853 11.8404 58.8145 16.1385H58.7081L58.7081 66.2936C58.7137 66.5391 58.7585 66.7722 58.7585 67.0219C58.7585 67.2716 58.7137 67.5046 58.7081 67.7501V68.5949H58.6493C58.0947 80.2473 51.6248 89.4693 43.6481 89.4693C40.1862 89.4693 37.0353 87.6715 34.4866 84.7626V85.2037C31.0032 82.2093 27.0499 80.6331 23.0256 80.6343C20.0014 80.6343 17.0067 81.5195 14.2128 83.2394C11.4188 84.9592 8.88025 87.48 6.74206 90.6578C4.60386 93.8355 2.90792 97.6081 1.75111 101.76C0.594295 105.912 -0.000735053 110.361 6.81448e-07 114.855C-0.000367208 119.348 0.594956 123.797 1.75197 127.948C2.90898 132.099 4.60502 135.871 6.74322 139.048C8.88141 142.225 11.4199 144.745 14.2136 146.464C17.0074 148.183 20.0017 149.068 23.0256 149.067C27.2016 149.067 31.1088 147.39 34.4866 144.498V144.876C37.0987 141.876 40.3046 140.242 43.6061 140.228C51.58 140.228 58.0499 149.45 58.6017 161.106H58.7081L58.7081 221.541H58.7641C58.7767 225.912 59.954 230.097 62.0383 233.182C64.1227 236.266 66.9444 237.998 69.8862 238C70.0487 238 70.1999 237.937 70.3623 237.929L107.952 237.929V237.75C109.618 237.749 111.216 236.765 112.395 235.015C113.573 233.265 114.236 230.891 114.237 228.415C114.237 227.475 114.111 226.584 113.932 225.731C112.439 220.633 111.668 215.132 111.669 209.572C111.669 187.129 123.911 168.938 139.011 168.938C154.113 168.938 166.352 187.129 166.352 209.572C166.356 214.986 165.63 220.346 164.215 225.336C163.955 226.359 163.818 227.442 163.812 228.536C163.811 229.762 163.973 230.977 164.289 232.11C164.605 233.243 165.068 234.272 165.651 235.139C166.235 236.006 166.928 236.693 167.691 237.161C168.454 237.629 169.272 237.869 170.097 237.866C170.453 237.866 170.797 237.796 171.139 237.708V237.929H207.225C207.387 237.941 207.538 238 207.701 238C210.652 237.997 213.481 236.255 215.568 233.154C217.654 230.054 218.827 225.85 218.829 221.466C218.829 221.012 218.764 220.583 218.739 220.138V165.239C218.739 164.012 218.576 162.797 218.259 161.664C217.943 160.531 217.479 159.501 216.895 158.634C216.311 157.767 215.618 157.079 214.855 156.61C214.092 156.141 213.274 155.9 212.448 155.9C211.754 155.9 211.101 156.108 210.476 156.416L210.437 156.433C210.294 156.504 210.14 156.545 210.003 156.633V156.599C207.51 157.689 204.925 158.245 202.326 158.252C198.735 158.253 195.18 157.203 191.862 155.161C188.544 153.12 185.53 150.128 182.991 146.355C180.452 142.583 178.438 138.104 177.064 133.174C175.69 128.245 174.984 122.962 174.984 117.626C174.984 112.291 175.691 107.008 177.065 102.079C178.439 97.1501 180.453 92.6714 182.992 88.8989C185.531 85.1264 188.545 82.134 191.862 80.0926C195.18 78.0512 198.735 77.0007 202.326 77.0013C204.925 77.007 207.51 77.5633 210.003 78.6534V78.5494C210.959 79.153 212.001 79.3953 213.036 79.2546C214.07 79.1138 215.065 78.5944 215.932 77.7428C216.798 76.8912 217.509 75.7338 218.001 74.3742C218.493 73.0146 218.75 71.4952 218.75 69.9516C218.75 69.8975 218.739 69.8476 218.739 69.7935V16.5588C218.735 12.2057 217.577 8.03009 215.515 4.93794C213.452 1.84581 210.653 0.0864868 207.723 0.0415649V0.0207367H171.139V0.212219C169.622 0.486557 168.226 1.57581 167.212 3.27458C166.199 4.97336 165.639 7.16425 165.638 9.43419H165.361C166.009 12.9139 166.341 16.5065 166.349 20.1169C166.349 42.556 154.11 60.7462 139.008 60.7462C123.909 60.7462 111.666 42.556 111.666 20.1169C111.666 16.4131 112.027 12.8425 112.655 9.43419H112.392L112.397 9.33018C112.397 5.12701 110.521 1.61879 107.949 0.449387V0.0207367H106.255C106.207 0.0207367 106.165 -4.57764e-05 106.118 -4.57764e-05C106.07 0.00827026 106.028 0.0249176 105.98 0.0290833Z" fill="#EF4F4F"/>
<path d="M748.231 237.971H783.231V237.967C786.037 237.953 788.729 236.262 790.734 233.255C792.739 230.247 793.899 226.16 793.968 221.862H794.071V171.706C794.065 171.461 794.022 171.228 794.022 170.978C794.022 170.728 794.065 170.495 794.071 170.25V169.405H794.128C794.666 157.753 800.939 148.531 808.674 148.531C812.031 148.531 815.087 150.328 817.558 153.237V152.796C820.936 155.791 824.77 157.367 828.672 157.366C831.605 157.366 834.508 156.48 837.218 154.761C839.927 153.041 842.389 150.52 844.462 147.342C846.535 144.164 848.18 140.392 849.302 136.24C850.424 132.088 851.001 127.639 851 123.145C851 118.652 850.423 114.203 849.301 110.052C848.179 105.901 846.534 102.129 844.461 98.9523C842.388 95.7753 839.926 93.2552 837.217 91.5361C834.508 89.817 831.604 88.9324 828.672 88.933C824.623 88.933 820.834 90.6101 817.558 93.5024V93.1237C815.025 96.1236 811.917 97.7577 808.715 97.7721C800.983 97.7721 794.709 88.5501 794.174 76.8936H794.071V16.4594H794.016C794.004 12.0885 792.863 7.90286 790.841 4.81834C788.82 1.73382 786.084 0.00152994 783.231 0.000469519C783.074 0.000469519 782.927 0.0628937 782.77 0.0712168L746.319 0.0712168V0.250161C744.703 0.251263 743.154 1.23493 742.011 2.9851C740.868 4.73528 740.226 7.10886 740.224 9.58454C740.224 10.525 740.346 11.4156 740.52 12.2687C741.968 17.3671 742.715 22.8679 742.715 28.4281C742.715 50.8714 730.843 69.0615 716.202 69.0615C701.557 69.0615 689.689 50.8714 689.689 28.4281C689.685 23.014 690.389 17.6537 691.761 12.6641C692.013 11.641 692.146 10.5576 692.152 9.46385C692.153 8.23758 691.995 7.02314 691.689 5.89011C691.383 4.75708 690.934 3.72772 690.368 2.861C689.802 1.99428 689.13 1.30725 688.39 0.839238C687.65 0.371229 686.858 0.131447 686.057 0.133638C685.712 0.133638 685.378 0.204385 685.047 0.291777V0.0712168L650.055 0.0712168C649.897 0.0587322 649.75 0.000469519 649.593 0.000469519C646.732 0.00267494 643.988 1.74534 641.964 4.84556C639.941 7.94579 638.804 12.15 638.802 16.5343C638.802 16.988 638.865 17.4166 638.889 17.8619V72.7612C638.89 73.9881 639.048 75.2028 639.355 76.3361C639.661 77.4694 640.111 78.4991 640.677 79.3662C641.244 80.2334 641.916 80.9211 642.656 81.3901C643.396 81.8591 644.189 82.1002 644.989 82.0997C645.663 82.0997 646.296 81.8916 646.901 81.5837L646.939 81.567C647.078 81.4963 647.227 81.4547 647.36 81.3673V81.4006C649.778 80.311 652.285 79.7547 654.805 79.7484C658.287 79.7473 661.735 80.7974 664.952 82.8386C668.169 84.8798 671.092 87.8722 673.554 91.6448C676.016 95.4174 677.969 99.8963 679.301 104.826C680.633 109.755 681.319 115.038 681.318 120.374C681.318 125.709 680.633 130.992 679.301 135.921C677.968 140.85 676.015 145.329 673.553 149.101C671.091 152.874 668.168 155.866 664.951 157.907C661.735 159.949 658.287 160.999 654.805 160.999C652.285 160.993 649.778 160.437 647.36 159.347V159.451C646.433 158.847 645.423 158.605 644.42 158.745C643.417 158.886 642.452 159.406 641.612 160.257C640.772 161.109 640.082 162.266 639.605 163.626C639.128 164.985 638.879 166.505 638.878 168.048C638.878 168.102 638.889 168.152 638.889 168.206V221.441C638.893 225.794 640.016 229.97 642.016 233.062C644.016 236.154 646.73 237.913 649.571 237.958V237.979H685.047V237.788C686.518 237.513 687.872 236.424 688.854 234.725C689.837 233.027 690.38 230.836 690.381 228.566H690.65C690.022 225.086 689.699 221.493 689.691 217.883C689.691 195.444 701.56 177.254 716.204 177.254C730.846 177.254 742.718 195.444 742.718 217.883C742.718 221.587 742.367 225.157 741.759 228.566H742.014L742.009 228.67C742.009 232.873 743.828 236.381 746.322 237.551V237.979H747.965C748.011 237.979 748.052 238 748.098 238C748.144 237.992 748.185 237.975 748.231 237.971Z" fill="#EF4F4F"/>
<path d="M167.99 0.000488281H758.164V238H167.99V0.000488281Z" fill="#EF4F4F"/>
<g filter="url(#filter1_d_461:125)">
<path d="M292.225 46.2832H328.675C340.975 46.2832 350.2 49.5832 356.35 56.1832C362.5 62.7832 365.575 72.4582 365.575 85.2082V100.733C365.575 113.483 362.5 123.158 356.35 129.758C350.2 136.358 340.975 139.658 328.675 139.658H316.975V203.783H292.225V46.2832ZM328.675 117.158C332.725 117.158 335.725 116.033 337.675 113.783C339.775 111.533 340.825 107.708 340.825 102.308V83.6332C340.825 78.2332 339.775 74.4082 337.675 72.1582C335.725 69.9082 332.725 68.7832 328.675 68.7832H316.975V117.158H328.675ZM379.017 46.2832H403.767V181.283H444.492V203.783H379.017V46.2832ZM476.365 46.2832H509.89L535.54 203.783H510.79L506.29 172.508V172.958H478.165L473.665 203.783H450.715L476.365 46.2832ZM503.365 151.583L492.34 73.7332H491.89L481.09 151.583H503.365ZM559.945 136.733L530.02 46.2832H556.345L573.22 104.108H573.67L590.545 46.2832H614.62L584.695 136.733V203.783H559.945V136.733Z" fill="#14448D"/>
</g>
</g>
<defs>
<filter id="filter0_d_461:125" x="0" y="0" width="863" height="250" filterUnits="userSpaceOnUse" color-interpolation-filters="sRGB">
<feFlood flood-opacity="0" result="BackgroundImageFix"/>
<feColorMatrix in="SourceAlpha" type="matrix" values="0 0 0 0 0 0 0 0 0 0 0 0 0 0 0 0 0 0 127 0" result="hardAlpha"/>
<feOffset dx="8" dy="8"/>
<feGaussianBlur stdDeviation="2"/>
<feComposite in2="hardAlpha" operator="out"/>
<feColorMatrix type="matrix" values="0 0 0 0 0 0 0 0 0 0 0 0 0 0 0 0 0 0 0.7 0"/>
<feBlend mode="normal" in2="BackgroundImageFix" result="effect1_dropShadow_461:125"/>
<feBlend mode="normal" in="SourceGraphic" in2="effect1_dropShadow_461:125" result="shape"/>
</filter>
<filter id="filter1_d_461:125" x="290.177" y="46.2832" width="332.49" height="168.548" filterUnits="userSpaceOnUse" color-interpolation-filters="sRGB">
<feFlood flood-opacity="0" result="BackgroundImageFix"/>
<feColorMatrix in="SourceAlpha" type="matrix" values="0 0 0 0 0 0 0 0 0 0 0 0 0 0 0 0 0 0 127 0" result="hardAlpha"/>
<feOffset dx="3" dy="6"/>
<feGaussianBlur stdDeviation="2.52381"/>
<feComposite in2="hardAlpha" operator="out"/>
<feColorMatrix type="matrix" values="0 0 0 0 0 0 0 0 0 0 0 0 0 0 0 0 0 0 0.6 0"/>
<feBlend mode="normal" in2="BackgroundImageFix" result="effect1_dropShadow_461:125"/>
<feBlend mode="normal" in="SourceGraphic" in2="effect1_dropShadow_461:125" result="shape"/>
</filter>
</defs>
</svg>
